<svg width="486" height="474" viewBox="0 0 486 474" fill="none" xmlns="http://www.w3.org/2000/svg">
<path d="M379.008 360.727H378.766C369.417 360.589 362.183 354.896 360.366 346.213C359.562 343.538 359.507 340.693 360.206 337.988C360.906 335.283 362.333 332.822 364.333 330.872C368.853 326.341 375.719 324.385 381.4 326.007C386.322 327.41 389.738 331.263 391.049 336.863C391.612 338.857 391.614 340.968 391.054 342.963C390.494 344.958 389.394 346.759 387.875 348.168C386.28 349.757 384.3 350.903 382.128 351.494C379.956 352.085 377.668 352.1 375.489 351.538C372.039 350.457 369.739 347.628 368.865 343.557C368.508 342.339 368.462 341.052 368.731 339.813C369.001 338.573 369.576 337.421 370.406 336.461C371.321 335.431 372.464 334.629 373.744 334.118C375.023 333.607 376.404 333.401 377.777 333.517C379.068 333.739 380.267 334.331 381.229 335.221C382.19 336.111 382.873 337.261 383.194 338.531C383.414 339.597 383.276 340.705 382.802 341.684C382.328 342.663 381.544 343.459 380.572 343.948C379.92 344.356 379.145 344.521 378.383 344.413C377.622 344.306 376.923 343.933 376.409 343.361C375.992 342.986 375.719 342.477 375.64 341.922C375.56 341.367 375.677 340.802 375.972 340.325C376.127 340.061 376.381 339.87 376.678 339.793C376.974 339.717 377.289 339.761 377.553 339.917C377.817 340.072 378.008 340.326 378.085 340.623C378.161 340.919 378.117 341.234 377.961 341.498C378.066 341.682 378.227 341.828 378.421 341.912C378.555 341.974 378.703 342.001 378.85 341.989C378.997 341.977 379.139 341.926 379.261 341.843C379.8 341.61 380.244 341.201 380.52 340.683C380.796 340.165 380.887 339.568 380.779 338.991C380.562 338.211 380.136 337.506 379.545 336.952C378.955 336.399 378.224 336.018 377.432 335.851C376.447 335.775 375.457 335.928 374.541 336.299C373.625 336.671 372.808 337.25 372.154 337.99C371.571 338.663 371.172 339.475 370.994 340.347C370.817 341.22 370.868 342.123 371.142 342.97C371.809 346.248 373.522 348.387 376.133 349.192C377.9 349.62 379.748 349.588 381.5 349.099C383.251 348.61 384.848 347.679 386.138 346.397C387.351 345.282 388.229 343.851 388.674 342.264C389.119 340.678 389.113 338.999 388.657 337.415C387.231 331.32 383.528 329.089 380.675 328.273C375.88 326.904 369.831 328.652 365.966 332.516C364.249 334.179 363.03 336.289 362.446 338.607C361.863 340.925 361.939 343.361 362.666 345.638C364.621 354.839 372.269 358.231 378.766 358.289C385.954 358.392 394.683 354.31 396.891 345.144C396.966 344.839 397.159 344.576 397.427 344.413C397.696 344.25 398.018 344.201 398.323 344.275C398.628 344.35 398.891 344.543 399.054 344.811C399.216 345.08 399.266 345.402 399.191 345.707C396.719 356.069 387.047 360.727 379.008 360.727Z" fill="#EBEBEB"/>
<path d="M54.4547 386.81L54.6272 387.04C60.1934 394.55 60.0554 403.75 54.2706 410.478C52.6329 412.742 50.4047 414.514 47.8292 415.599C45.2536 416.683 42.4296 417.04 39.6651 416.63C36.5848 416.236 33.6591 415.051 31.1723 413.191C28.6855 411.331 26.7223 408.859 25.4736 406.015C23.6105 401.266 24.5996 396.194 28.2567 391.755C29.5013 390.099 31.1789 388.819 33.1047 388.056C35.0305 387.293 37.1296 387.077 39.1706 387.431C41.3987 387.733 43.5095 388.611 45.2944 389.979C47.0793 391.346 48.4767 393.155 49.3485 395.228C50.5905 398.621 49.774 402.209 47.0484 405.337C46.2962 406.359 45.3003 407.176 44.1513 407.715C43.0022 408.253 41.7367 408.495 40.4701 408.419C39.0971 408.316 37.7671 407.894 36.5854 407.187C35.4036 406.481 34.4027 405.508 33.6619 404.348C33.0554 403.187 32.7978 401.875 32.9202 400.571C33.0427 399.267 33.5399 398.027 34.3519 396.999C35.0663 396.178 36.0311 395.615 37.0974 395.397C38.1636 395.178 39.2721 395.317 40.2516 395.792C40.9701 396.066 41.57 396.583 41.948 397.253C42.326 397.923 42.4581 398.703 42.3217 399.46C42.2711 400.019 42.0277 400.542 41.6332 400.941C41.2387 401.34 40.7177 401.589 40.1596 401.645C40.001 401.658 39.8416 401.638 39.6912 401.586C39.5409 401.534 39.403 401.451 39.2863 401.343C39.1695 401.235 39.0765 401.104 39.013 400.958C38.9496 400.812 38.9171 400.654 38.9176 400.495C38.8937 400.206 38.98 399.919 39.1591 399.69C39.3383 399.462 39.5971 399.31 39.8836 399.265C39.9692 399.073 39.9894 398.859 39.9411 398.655C39.91 398.51 39.8402 398.375 39.739 398.266C39.6378 398.156 39.5089 398.076 39.3661 398.034C38.8556 397.745 38.2615 397.638 37.6822 397.732C37.1029 397.826 36.5731 398.115 36.1805 398.552C35.6863 399.201 35.3816 399.975 35.3004 400.787C35.2192 401.599 35.3646 402.417 35.7205 403.152C36.2664 403.977 36.9957 404.665 37.8516 405.162C38.7075 405.659 39.6667 405.951 40.6541 406.015C41.5458 406.072 42.4369 405.898 43.2423 405.512C44.0478 405.125 44.7405 404.538 45.2543 403.807C47.4624 401.277 48.1064 398.621 47.1634 396.056C46.4243 394.383 45.2668 392.929 43.8024 391.833C42.338 390.737 40.6161 390.037 38.8026 389.8C37.1811 389.513 35.5117 389.684 33.982 390.293C32.4522 390.903 31.1227 391.927 30.1428 393.25C26.1636 398.08 26.6236 402.37 27.7162 405.13C29.5447 409.73 34.6164 413.525 40.0101 414.25C42.3654 414.613 44.7751 414.312 46.969 413.382C49.163 412.451 51.0542 410.928 52.4306 408.983C58.5833 401.818 56.6052 393.698 52.7296 388.466C48.4514 382.716 39.9181 378.23 31.2928 382.037C31.0015 382.167 30.6707 382.175 30.373 382.061C30.0754 381.947 29.8354 381.719 29.7057 381.428C29.5761 381.136 29.5675 380.805 29.6818 380.508C29.7961 380.21 30.024 379.97 30.3153 379.84C40.0446 375.551 49.6015 380.415 54.4547 386.81Z" fill="#EBEBEB"/>
<path d="M430.829 74.6881L430.633 74.9642C424.262 83.854 413.958 86.9936 404.389 83.0145C401.277 82.0038 398.502 80.1557 396.37 77.6727C394.238 75.1897 392.831 72.1677 392.302 68.9379C390.968 61.5777 393.671 53.6769 399.03 49.2952C403.63 45.5116 409.657 44.7985 415.913 47.2826C418.204 48.0735 420.232 49.4824 421.772 51.3537C423.313 53.225 424.306 55.4857 424.642 57.886C425.527 63.3142 423.492 69.0069 419.604 72.0316C416.269 74.6306 411.98 74.9987 407.518 73.0666C406.118 72.588 404.86 71.7688 403.856 70.6826C402.852 69.5965 402.134 68.2776 401.767 66.8449C401.391 65.2772 401.385 63.6436 401.748 62.073C402.111 60.5023 402.834 59.0375 403.86 57.794C404.939 56.7039 406.31 55.949 407.807 55.6205C409.305 55.292 410.866 55.4038 412.302 55.9425C413.476 56.4387 414.453 57.3113 415.077 58.4229C415.702 59.5346 415.939 60.8224 415.752 62.0837C415.708 62.983 415.348 63.8379 414.736 64.4983C414.124 65.1587 413.299 65.5823 412.405 65.6948C411.765 65.8383 411.095 65.755 410.51 65.4592C409.925 65.1634 409.461 64.6735 409.197 64.0733C409.072 63.7395 409.078 63.3708 409.215 63.0419C409.352 62.713 409.61 62.4485 409.934 62.3022C410.259 62.1559 410.628 62.1386 410.965 62.2539C411.302 62.3693 411.583 62.6085 411.75 62.9232C411.995 62.946 412.241 62.8896 412.451 62.7622C412.602 62.6777 412.728 62.5541 412.815 62.4044C412.902 62.2547 412.947 62.0843 412.946 61.9112C413.084 61.2386 412.988 60.5391 412.674 59.9285C412.361 59.3178 411.848 58.8325 411.221 58.5531C410.325 58.2429 409.362 58.1861 408.437 58.3891C407.511 58.592 406.66 59.0468 405.976 59.7031C405.244 60.598 404.729 61.6504 404.472 62.7778C404.214 63.9051 404.222 65.0768 404.493 66.2008C404.755 67.2077 405.27 68.1311 405.988 68.8837C406.707 69.6363 407.605 70.1933 408.599 70.502C412.198 72.0546 415.395 71.8245 417.925 69.858C420.985 67.4774 422.618 62.7622 421.916 58.3576C421.661 56.4519 420.881 54.655 419.662 53.1681C418.443 51.6812 416.834 50.5631 415.016 49.9392C408.219 47.2366 403.596 49.2952 400.905 51.4918C396.385 55.1949 394.005 62.1757 395.155 68.4664C395.603 71.2204 396.808 73.7953 398.636 75.9035C400.464 78.0116 402.842 79.5698 405.505 80.4039C415.694 84.6935 424.021 79.5873 428.506 73.3886C433.405 66.5689 435.326 55.4594 427.988 47.2021C427.866 47.0639 427.772 46.903 427.712 46.7285C427.652 46.5541 427.627 46.3694 427.638 46.1852C427.649 46.001 427.696 45.8208 427.777 45.6549C427.858 45.489 427.971 45.3406 428.109 45.2183C428.247 45.096 428.408 45.0021 428.583 44.9419C428.757 44.8818 428.942 44.8566 429.126 44.8678C429.31 44.879 429.49 44.9264 429.656 45.0073C429.822 45.0881 429.971 45.2009 430.093 45.3391C438.189 54.5509 436.2 66.9484 430.829 74.6881Z" fill="#EBEBEB"/>
<path d="M468.562 248.345L468.447 248.207C464.79 243.905 464.502 238.362 467.722 234.072C468.616 232.639 469.887 231.48 471.397 230.721C472.906 229.962 474.595 229.634 476.278 229.771C478.153 229.886 479.966 230.484 481.541 231.505C483.117 232.527 484.402 233.938 485.272 235.602C485.904 237.018 486.131 238.581 485.928 240.118C485.725 241.654 485.1 243.105 484.122 244.308C483.438 245.356 482.478 246.196 481.348 246.734C480.218 247.271 478.961 247.487 477.716 247.355C476.361 247.26 475.054 246.815 473.924 246.063C472.793 245.311 471.876 244.278 471.264 243.066C470.838 242.044 470.706 240.923 470.883 239.83C471.06 238.736 471.538 237.714 472.265 236.879C472.677 236.236 473.243 235.706 473.912 235.336C474.581 234.967 475.331 234.77 476.094 234.763C476.927 234.767 477.748 234.966 478.49 235.344C479.233 235.721 479.878 236.266 480.373 236.936C480.781 237.614 480.987 238.395 480.964 239.186C480.942 239.977 480.693 240.745 480.246 241.398C479.852 241.91 479.303 242.279 478.68 242.452C478.058 242.624 477.397 242.589 476.796 242.353C476.351 242.218 475.968 241.931 475.713 241.542C475.459 241.153 475.349 240.687 475.404 240.225C475.41 239.887 475.534 239.562 475.755 239.306C475.976 239.05 476.279 238.878 476.612 238.822C476.801 238.787 476.996 238.829 477.155 238.937C477.313 239.046 477.422 239.214 477.457 239.403C477.492 239.592 477.451 239.787 477.342 239.946C477.233 240.104 477.066 240.213 476.877 240.248C476.839 240.368 476.839 240.496 476.877 240.616C476.902 240.702 476.949 240.781 477.013 240.843C477.078 240.906 477.158 240.95 477.245 240.973C477.565 241.124 477.927 241.162 478.272 241.08C478.616 240.999 478.923 240.803 479.142 240.524C479.413 240.119 479.566 239.646 479.585 239.159C479.603 238.671 479.486 238.189 479.246 237.764C478.889 237.285 478.426 236.895 477.893 236.626C477.36 236.357 476.772 236.215 476.175 236.212C475.638 236.215 475.11 236.356 474.643 236.622C474.176 236.888 473.784 237.269 473.507 237.73C472.933 238.361 472.549 239.143 472.401 239.983C472.252 240.824 472.344 241.689 472.667 242.479C473.173 243.455 473.921 244.285 474.839 244.889C475.757 245.493 476.815 245.852 477.912 245.929C478.901 246.041 479.902 245.872 480.8 245.443C481.699 245.014 482.459 244.342 482.995 243.503C483.831 242.512 484.369 241.303 484.544 240.018C484.719 238.733 484.525 237.425 483.984 236.246C483.218 234.819 482.102 233.611 480.739 232.735C479.377 231.86 477.814 231.346 476.198 231.243C474.764 231.123 473.326 231.404 472.042 232.053C470.759 232.703 469.681 233.697 468.93 234.924C465.48 239.524 467.032 244.296 469.574 247.298C472.38 250.599 477.705 252.945 482.753 250.311C482.838 250.254 482.933 250.216 483.034 250.199C483.134 250.181 483.237 250.185 483.336 250.21C483.434 250.235 483.527 250.281 483.607 250.344C483.686 250.407 483.752 250.487 483.799 250.577C483.846 250.667 483.874 250.766 483.88 250.868C483.887 250.97 483.871 251.072 483.836 251.167C483.8 251.262 483.744 251.349 483.673 251.422C483.601 251.494 483.515 251.551 483.42 251.588C477.67 254.543 471.759 252.002 468.562 248.345Z" fill="#EBEBEB"/>
<path d="M62.2518 150.407C62.2518 150.533 62.3553 150.649 62.4128 150.764C67.726 162.264 65.0004 174.431 55.5126 181.757C52.7139 184.306 49.2699 186.038 45.5553 186.766C41.8406 187.494 37.9974 187.19 34.4438 185.886C26.2095 183.022 19.8153 175.777 18.4697 167.842C17.3197 161.022 20.0108 154.582 26.083 149.705C28.1972 147.845 30.7859 146.608 33.5613 146.131C36.3367 145.654 39.19 145.956 41.8041 147.003C47.7728 149.222 52.3385 154.513 53.155 160.159C53.868 165.013 51.7864 169.544 47.2898 172.925C46.0143 174.078 44.4702 174.892 42.7987 175.294C41.1271 175.696 39.3814 175.672 37.7214 175.225C35.9267 174.712 34.2767 173.786 32.903 172.522C31.5293 171.258 30.4699 169.691 29.8091 167.945C29.3274 166.237 29.3501 164.426 29.8746 162.73C30.399 161.034 31.4027 159.526 32.7647 158.388C35.0648 156.56 38.0894 156.571 40.9185 158.388C41.7979 158.949 42.4523 159.801 42.7676 160.795C43.0829 161.789 43.039 162.863 42.6436 163.828C42.4237 164.551 41.9595 165.176 41.3303 165.596C40.7012 166.015 39.9459 166.203 39.1935 166.128C38.7709 166.052 38.3951 165.813 38.1476 165.462C37.9001 165.111 37.8007 164.677 37.8709 164.254C37.9319 163.87 38.1297 163.521 38.4277 163.271C38.7257 163.022 39.1039 162.889 39.4925 162.896C39.6531 162.663 39.7375 162.386 39.734 162.103C39.7316 161.901 39.6762 161.703 39.5732 161.53C39.4703 161.356 39.3234 161.213 39.1475 161.114C37.4914 160.021 36.0194 159.964 34.7773 160.918C33.9534 161.643 33.3433 162.578 33.0129 163.624C32.6825 164.67 32.6444 165.787 32.9027 166.853C33.3938 168.105 34.1687 169.226 35.1665 170.128C36.1643 171.03 37.3577 171.688 38.653 172.051C39.8045 172.354 41.0141 172.36 42.1686 172.068C43.3231 171.777 44.3848 171.197 45.2542 170.383C48.8768 167.658 50.4754 164.3 49.9349 160.631C49.2908 156.192 45.4842 151.845 40.6655 150.062C38.5947 149.23 36.3327 148.992 34.1341 149.376C31.9356 149.76 29.888 150.75 28.2221 152.236C21.6093 157.537 21.0458 163.368 21.7243 167.336C22.8744 173.994 28.5326 180.366 35.5248 182.815C38.5497 183.944 41.8291 184.208 44.9957 183.579C48.1623 182.949 51.0911 181.45 53.454 179.25C63.5859 171.453 63.2178 160.136 59.5147 152.132C55.4436 143.3 45.3577 135.019 32.8567 137.676C32.6483 137.721 32.4332 137.724 32.2236 137.685C32.014 137.646 31.814 137.567 31.6351 137.451C31.4563 137.335 31.302 137.185 31.1811 137.01C31.0601 136.834 30.975 136.637 30.9304 136.428C30.8859 136.22 30.8828 136.005 30.9214 135.795C30.96 135.585 31.0395 135.386 31.1554 135.207C31.2712 135.028 31.4212 134.873 31.5967 134.753C31.7722 134.632 31.9698 134.546 32.1782 134.502C46.1972 131.489 57.5366 140.586 62.2518 150.407Z" fill="#EBEBEB"/>
<path d="M422.054 164.012L431.254 155.433L423.239 139.884L438.73 148.463L449.034 138.849L446.607 151.35L461.236 160.159L444.687 161.24L439.972 176.755L435.084 162.413L422.054 164.012Z" fill="#E0E0E0"/>
<path d="M48.2671 61.2789L58.7785 51.469L49.6241 33.7009L67.3233 43.5107L79.0997 32.5278L76.3166 46.7999L93.0382 56.8627L74.12 58.1048L68.7378 75.8384L63.1601 59.4503L48.2671 61.2789Z" fill="#E0E0E0"/>
<path d="M432.232 394.204L437.66 389.144L432.922 379.955L442.076 385.027L448.16 379.357L446.722 386.729L455.359 391.927L445.584 392.571L442.812 401.737L439.926 393.261L432.232 394.204Z" fill="#E0E0E0"/>
<path d="M100.387 357.323L105.815 352.251L101.089 343.074L110.231 348.134L116.315 342.464L114.889 349.836L123.526 355.034L113.751 355.678L110.967 364.844L108.081 356.38L100.387 357.323Z" fill="#E0E0E0"/>
<path d="M0 254.474L5.4397 249.414L0.701522 240.225L9.84436 245.297L15.9281 239.616L14.502 246.999L23.1388 252.197L13.3635 252.83L10.5804 261.996L7.69378 253.531L0 254.474Z" fill="#E0E0E0"/>
<path d="M242.659 473.672C308.956 473.672 362.7 445.42 362.7 410.57C362.7 375.719 308.956 347.467 242.659 347.467C176.362 347.467 122.617 375.719 122.617 410.57C122.617 445.42 176.362 473.672 242.659 473.672Z" fill="#E0E0E0"/>
<path d="M281.163 191.521C318.309 194.282 337.515 204.793 381.792 232.118C412.279 250.967 451.174 311.356 451.174 311.356C451.174 311.356 438.903 321.844 396.57 304.456C352.063 286.239 295.044 259.006 295.044 259.006L281.163 191.521Z" fill="#455A64"/>
<path d="M349.544 147.498C349.544 147.498 347.796 147.153 346.485 144.048C345.174 140.942 344.863 138.585 343.46 135.089C342.057 131.593 338.86 125.957 335.295 126.222C331.73 126.486 332.052 134.56 333.582 140.781C335.111 147.003 335.997 150.672 333.639 158.757C331.281 166.841 332.109 176.226 338.527 182.907L349.544 147.498Z" fill="#F0997A"/>
<path d="M379.733 250.863C390.624 274.428 392.487 280.063 397.501 288.815C402.515 297.567 406.954 301.81 414.89 306.065C423.756 310.804 430.174 312.966 439.857 313.828C442.693 314.26 445.59 314.048 448.333 313.207C455.038 310.7 456.153 303.926 456.027 296.382C455.762 281.155 452.576 268.781 445.745 257.522C442.537 252.186 440.765 249.886 430.07 236.959C421.364 226.448 414.499 219.076 402.584 203.493C391.774 189.359 381.975 175.455 377.95 166.692C373.925 157.928 372.326 151.684 372.476 146.209C372.695 137.872 374.006 137.803 369.026 129.315C365.576 123.761 363.736 116.09 361.804 111.455C359.791 106.907 357.156 102.661 353.972 98.8393C350.66 94.5956 347.417 88.7419 345.507 88.5809C343.598 88.4199 341.137 91.134 342.287 94.8831C342.287 94.8831 339.251 92.7095 336.537 90.2829C333.823 87.8564 331.488 84.6362 328.556 84.7397C325.623 84.8432 325.451 89.4894 327.233 92.238C329.016 94.9866 330.246 96.4817 330.246 96.4817C330.246 96.4817 327.866 98.4252 331.707 103.175C333.293 105.084 335.121 106.778 337.147 108.212C339.182 112.111 339.907 114.112 342.897 116.964C345.197 120.564 346.704 123.692 349.383 126.417C349.176 129.522 347.75 133.536 349.13 138.458C350.51 143.38 351.626 144.323 347.428 151.787C344.61 156.824 339.171 163.173 336.986 169.659C334.801 176.145 335.663 180.665 340.436 186.047C344.53 190.647 351.361 192.947 356.996 202.987C361.436 210.991 366.392 221.986 379.733 250.863Z" fill="#FFBDA7"/>
<path d="M353.466 121.748C353.333 120.987 353.24 120.219 353.19 119.448C353.148 118.682 353.148 117.914 353.19 117.148C353.215 116.418 353.295 115.692 353.431 114.974L353.5 114.595L353.19 114.238C351.91 112.823 350.873 111.207 350.119 109.454C349.734 108.585 349.411 107.689 349.153 106.775C348.916 105.866 348.736 104.945 348.613 104.014V103.658L348.44 103.462C347.29 102.163 346.197 100.771 345.151 99.3453C344.087 97.8963 343.152 96.357 342.356 94.7451C342.651 96.4117 343.222 98.0171 344.047 99.4948C345.047 101.115 346.174 102.653 347.417 104.095C347.466 105.07 347.616 106.037 347.865 106.982C348.109 108.013 348.452 109.018 348.889 109.983C349.631 111.784 350.725 113.419 352.109 114.79C352.016 115.554 351.962 116.322 351.948 117.09C351.948 117.88 352.014 118.669 352.143 119.448C352.532 120.997 353.198 122.462 354.11 123.772C353.822 123.232 353.604 122.496 353.466 121.748Z" fill="#F0997A"/>
<path d="M348.624 119.54C348.052 118.46 347.538 117.351 347.083 116.216C346.633 115.089 346.249 113.937 345.933 112.766C345.656 111.634 345.479 110.479 345.404 109.316V108.672L344.806 108.419C342.889 107.599 341.142 106.429 339.654 104.969C338.134 103.491 336.819 101.816 335.744 99.9891L335.583 99.7246H335.41C334.477 99.3631 333.57 98.9365 332.696 98.4481C331.807 97.938 330.971 97.3409 330.2 96.6655C330.722 97.4637 331.37 98.1708 332.121 98.7586C333.03 99.4172 334.001 99.9872 335.019 100.461C335.428 101.481 335.921 102.465 336.491 103.405C337.096 104.241 337.773 105.022 338.515 105.739C339.322 106.597 340.216 107.368 341.183 108.039C342.075 108.642 343.027 109.151 344.024 109.558C344.145 110.851 344.376 112.132 344.714 113.387C345.056 114.646 345.514 115.87 346.082 117.044C346.585 118.089 347.194 119.08 347.9 120C348.698 120.99 349.583 121.906 350.545 122.737C349.866 121.633 349.176 120.598 348.624 119.54Z" fill="#F0997A"/>
<path d="M352.603 132.696C353.138 134.934 353.138 137.267 352.603 139.505C352.092 141.738 351.231 143.877 350.05 145.841C350.246 144.691 350.545 143.633 350.821 142.541C351.097 141.448 351.361 140.379 351.591 139.298C352.072 137.121 352.41 134.916 352.603 132.696Z" fill="#F0997A"/>
<path d="M340.114 162.609C339.808 166.663 340.397 170.734 341.839 174.535C342.585 176.384 343.588 178.118 344.817 179.688C346.11 181.315 347.513 182.852 349.015 184.288C346.993 183.47 345.15 182.267 343.587 180.746C341.224 178.442 339.625 175.468 339.008 172.226C338.391 168.985 338.785 165.631 340.137 162.621L340.114 162.609Z" fill="#F0997A"/>
<path d="M326.486 355.149C327.44 334.449 327.003 311.011 327.003 311.011C327.003 311.011 345.485 299.924 345.197 271.748C345.025 255.728 339.01 244.147 317.378 222.181C305.601 210.233 281.163 191.521 281.163 191.521L260.726 188.761L193.242 190.141L168.608 194.534C162.179 197.824 142.698 236.511 147.815 280.788C149.437 294.738 159.994 320.269 163.582 340.003C161.846 372.366 153.934 377.518 143.491 403.831C143.491 415.711 160.132 430.868 177.889 438.596C212.045 453.466 266.316 453.823 302.416 440.011C322.921 432.168 340.516 418.781 340.47 406.901C340.47 406.913 330.971 376.782 326.486 355.149Z" fill="#BE185D"/>
<path opacity="0.2" d="M268.593 317.439C245.937 332.298 200.212 323.098 188.884 295.37C186.791 323.408 239.52 352.734 268.593 317.439Z" fill="black"/>
<path d="M183.099 50.9396C186.926 46.221 192.166 42.8551 198.049 41.3368C203.65 39.9337 207.088 40.0027 212.425 37.7601C217.508 35.6325 221.878 32.0099 226.938 29.8363C234.908 26.3862 244.097 26.9957 252.021 30.2619C259.944 33.528 264.832 40.8192 273.216 42.8203C277.586 43.8668 282.117 44.0969 286.464 45.2584C290.167 46.2008 293.644 47.8735 296.691 50.1782C299.739 52.4829 302.295 55.3732 304.209 58.6794C306.067 62.0081 307.075 65.7433 307.145 69.5544C307.215 73.3656 306.345 77.1353 304.612 80.5302C303.554 82.4853 302.139 84.3598 301.932 86.5679C301.553 90.6851 305.325 93.8362 307.154 97.5393C310.293 103.888 307.223 112.018 301.61 116.32C295.998 120.621 288.546 121.759 281.473 121.529C280.174 132.029 274.193 141.494 266.638 148.912C261.444 153.858 255.769 158.273 249.697 162.091C244.12 165.714 238.991 167.508 232.861 169.911C226.731 172.315 216.024 176.697 210.113 171.878C207.732 169.934 206.295 167.094 204.777 164.414C199.211 154.65 191.689 146.186 184.651 137.423C177.613 128.659 170.851 119.356 167.4 108.672C165.853 103.355 165.25 97.8085 165.618 92.2836C165.905 86.9014 166.664 80.8522 168.861 76.528C171.978 70.4098 175.071 67.5692 179.016 66.3042C177.383 58.3344 180.81 53.8952 183.099 50.9396Z" fill="#263238"/>
<path d="M283.509 70.2375C279.058 65.9478 274.412 64.7403 268.478 67.0289C265.315 68.2479 261.428 71.629 255.827 71.629C248.996 71.629 245.948 68.3284 238.749 66.4653C234.537 65.2488 230.022 65.6593 226.099 67.6154C217.772 71.56 215.277 81.4159 216.507 89.9492C216.598 91.9133 216.229 93.8713 215.43 95.668C214.632 97.4647 213.426 99.0505 211.907 100.3C211.213 100.829 210.581 101.435 210.021 102.105C208.319 104.497 210.608 109.73 210.194 112.651C209.901 114.619 209.183 116.499 208.089 118.16C207.718 118.836 207.2 119.421 206.573 119.87C205.946 120.32 205.226 120.624 204.466 120.759C202.166 120.92 200.487 118.585 199.337 116.538C198.015 114.169 196.968 111.236 194.737 109.638C192.85 108.335 190.683 107.492 188.412 107.177C186.124 106.883 183.8 107.106 181.61 107.831C179.421 108.555 177.422 109.762 175.761 111.363C168.861 118.033 169.471 134.203 178.498 142.334C189.757 152.489 201.35 144.99 201.499 142.794C201.499 142.794 201.499 172.281 201.499 176.041C201.568 181.907 201.016 186.668 193.323 190.037C206.433 214.602 234.724 234.464 256.736 231.508C279.127 228.506 273.756 199.307 260.807 188.657C259.461 188.266 254.976 188.025 254.85 182.907C254.735 177.502 254.85 179.457 254.85 179.457C266.569 180.009 271.514 179.215 278.081 175.455C287.867 169.854 296.378 158.94 296.378 123.576C296.378 110.581 291.421 106.728 292.215 100.921C293.284 93.0543 292.847 84.6705 289.144 77.5057C288.235 76.0107 287.913 74.5271 283.509 70.2375Z" fill="#FFBDA7"/>
<path opacity="0.3" d="M289.063 77.5977C288.235 76.0107 287.913 74.5271 283.509 70.2375C279.104 65.9478 274.412 64.7403 268.478 67.0289C265.315 68.2479 261.428 71.629 255.827 71.629C248.996 71.629 245.948 68.3284 238.749 66.4653C234.537 65.2488 230.022 65.6593 226.099 67.6154C217.772 71.56 215.277 81.4159 216.507 89.9492C216.601 91.6381 216.343 93.3282 215.749 94.912C215.155 96.4959 214.239 97.9389 213.057 99.1495C228.128 100.747 243.302 101.163 258.438 100.392C270.024 99.9385 281.518 98.1361 292.686 95.0209C292.965 89.0008 291.719 83.0077 289.063 77.5977Z" fill="#BE185D"/>
<path d="M220.257 171.901C214.603 168.718 209.972 163.991 206.905 158.273C207.427 161.771 208.649 165.126 210.499 168.14C212.348 171.154 214.787 173.763 217.669 175.812C230.894 185.012 251.02 185.805 255.505 185.886C255.02 184.997 254.767 184 254.769 182.988C254.769 180.987 254.712 179.998 254.769 179.538C242.843 178.767 229.342 176.686 220.257 171.901Z" fill="#F0997A"/>
<path d="M274.09 126.096L256.207 133.812L253.734 99.3687L274.09 126.096Z" fill="#F0997A"/>
<path d="M269.777 86.4761L281.163 93.1923C280.763 93.9571 280.212 94.6322 279.543 95.1764C278.873 95.7206 278.1 96.1223 277.27 96.3571C276.44 96.5918 275.57 96.6545 274.715 96.5415C273.86 96.4284 273.037 96.1418 272.296 95.6994C270.766 94.7849 269.65 93.3139 269.18 91.5946C268.711 89.8754 268.925 88.0411 269.777 86.4761Z" fill="#263238"/>
<path d="M240.658 87.8794L230.112 96.1252C230.615 96.834 231.257 97.4334 231.998 97.8872C232.739 98.3411 233.565 98.6399 234.425 98.7657C235.285 98.8915 236.161 98.8415 237.001 98.619C237.842 98.3964 238.628 98.0058 239.313 97.4707C240.722 96.3481 241.647 94.7277 241.898 92.9433C242.148 91.1589 241.704 89.3465 240.658 87.8794Z" fill="#263238"/>
<path d="M245.776 86.9365C245.566 86.0947 245.173 85.3094 244.626 84.6364C244.036 83.898 243.272 83.3165 242.404 82.9434C241.535 82.5703 240.588 82.4171 239.646 82.4973C239.591 82.5058 239.538 82.5265 239.491 82.558C239.444 82.5895 239.405 82.631 239.377 82.6794C239.348 82.7278 239.331 82.782 239.326 82.8381C239.32 82.8941 239.328 82.9505 239.347 83.0033C239.393 83.1258 239.475 83.2318 239.581 83.3076C239.688 83.3835 239.814 83.4257 239.945 83.4289C240.647 83.4868 241.329 83.693 241.946 84.034C242.562 84.375 243.1 84.843 243.522 85.4069C243.9 85.9339 244.166 86.5327 244.304 87.1665C244.402 87.9523 244.448 88.7437 244.442 89.5356C244.442 89.9841 245.281 90.2141 245.5 89.7886C245.75 89.3095 245.881 88.7767 245.879 88.236C245.891 87.8004 245.856 87.3648 245.776 86.9365Z" fill="#B16668"/>
<path d="M268.834 82.4859C268.752 82.3939 268.647 82.3245 268.531 82.2842C268.414 82.244 268.289 82.2342 268.167 82.2559C267.488 82.4673 266.882 82.8659 266.419 83.4059C266.006 83.8239 265.658 84.3006 265.384 84.8205C264.944 85.638 264.741 86.562 264.798 87.4886C264.798 87.8221 264.89 88.3856 265.304 88.4661C265.718 88.5466 265.879 88.0981 265.959 87.7876C266.04 87.4771 266.086 87.1781 266.155 86.8675C266.269 86.3335 266.459 85.8185 266.718 85.338C266.956 84.9166 267.25 84.5296 267.592 84.188C267.972 83.8084 268.455 83.5324 268.846 83.1644C268.896 83.1226 268.935 83.0702 268.962 83.011C268.989 82.9519 269.003 82.8874 269.002 82.8224C269 82.7574 268.985 82.6935 268.956 82.6352C268.927 82.577 268.885 82.526 268.834 82.4859Z" fill="#B16668"/>
<path d="M279.277 120.115C278.751 120.112 278.228 120.058 277.713 119.954C277.034 119.822 276.376 119.598 275.758 119.287C275.14 118.99 274.57 118.602 274.067 118.137C273.562 117.698 273.12 117.191 272.756 116.63C272.386 116.088 272.096 115.495 271.893 114.871C271.483 113.66 271.403 112.362 271.663 111.11C271.79 110.503 271.995 109.916 272.273 109.362C272.551 108.823 272.895 108.321 273.297 107.867C273.697 107.427 274.153 107.04 274.654 106.717C275.142 106.404 275.667 106.153 276.218 105.969C276.759 105.802 277.319 105.701 277.885 105.67C278.441 105.641 278.999 105.691 279.541 105.82C280.075 105.929 280.59 106.115 281.071 106.372C281.539 106.621 281.975 106.927 282.37 107.28C282.746 107.621 283.078 108.008 283.359 108.43C283.624 108.862 283.833 109.326 283.98 109.81C284.13 110.283 284.212 110.775 284.222 111.271C284.235 111.751 284.185 112.23 284.072 112.697C283.855 113.603 283.403 114.436 282.761 115.112C282.452 115.431 282.105 115.709 281.726 115.94C281.364 116.153 280.978 116.323 280.576 116.446C280.172 116.561 279.754 116.62 279.334 116.619C278.927 116.622 278.521 116.571 278.127 116.469C277.744 116.364 277.377 116.209 277.034 116.009C276.702 115.816 276.396 115.58 276.126 115.308C275.872 115.04 275.652 114.743 275.47 114.422C275.293 114.113 275.161 113.78 275.079 113.433C274.995 113.095 274.956 112.747 274.964 112.398C274.978 112.067 275.032 111.739 275.125 111.421C275.225 111.113 275.365 110.819 275.539 110.547C275.709 110.286 275.91 110.046 276.137 109.833C276.362 109.64 276.609 109.474 276.873 109.339C277.128 109.215 277.399 109.126 277.678 109.074C277.949 109.04 278.224 109.04 278.495 109.074C278.758 109.103 279.017 109.165 279.265 109.258C279.498 109.345 279.716 109.47 279.909 109.626C280.105 109.765 280.277 109.936 280.415 110.133C280.553 110.312 280.665 110.509 280.749 110.719C280.82 110.923 280.863 111.136 280.875 111.352C280.904 111.554 280.904 111.759 280.875 111.961C280.829 112.149 280.759 112.331 280.668 112.502C280.57 112.66 280.454 112.806 280.323 112.939C280.192 113.054 280.045 113.151 279.886 113.226C279.73 113.298 279.563 113.345 279.392 113.364C279.236 113.389 279.076 113.389 278.92 113.364C278.767 113.327 278.623 113.261 278.495 113.169C278.366 113.08 278.256 112.967 278.173 112.835C278.099 112.703 278.049 112.559 278.023 112.41C278.01 112.242 278.033 112.073 278.092 111.915C278.133 111.814 278.192 111.721 278.265 111.639C278.32 111.569 278.388 111.51 278.466 111.466C278.544 111.422 278.629 111.394 278.718 111.383C278.807 111.373 278.897 111.38 278.983 111.404C279.069 111.428 279.149 111.469 279.219 111.524C279.341 111.628 279.426 111.77 279.461 111.927C279.489 111.871 279.512 111.813 279.53 111.754C279.535 111.681 279.535 111.608 279.53 111.536C279.524 111.449 279.505 111.363 279.472 111.283C279.44 111.188 279.394 111.099 279.334 111.018C279.266 110.926 279.185 110.845 279.093 110.777C278.995 110.7 278.886 110.638 278.771 110.593C278.641 110.546 278.506 110.515 278.368 110.501C278.22 110.477 278.068 110.477 277.92 110.501C277.759 110.526 277.604 110.576 277.46 110.65C277.304 110.73 277.157 110.826 277.023 110.938C276.882 111.062 276.758 111.206 276.655 111.363C276.549 111.537 276.464 111.722 276.402 111.915C276.346 112.118 276.311 112.326 276.298 112.536C276.298 112.764 276.321 112.991 276.367 113.215C276.492 113.687 276.737 114.12 277.08 114.468C277.259 114.658 277.464 114.821 277.69 114.951C277.931 115.092 278.19 115.2 278.46 115.273C278.738 115.348 279.024 115.383 279.311 115.377C279.611 115.376 279.909 115.333 280.197 115.25C280.5 115.168 280.79 115.045 281.059 114.882C281.336 114.715 281.591 114.514 281.818 114.284C282.051 114.038 282.252 113.764 282.416 113.468C282.581 113.158 282.709 112.83 282.796 112.49C282.876 112.136 282.911 111.772 282.899 111.409C282.893 111.02 282.835 110.633 282.727 110.259C282.611 109.887 282.449 109.532 282.244 109.201C282.026 108.867 281.772 108.558 281.485 108.281C281.178 108.003 280.838 107.763 280.473 107.568C279.7 107.179 278.841 106.993 277.977 107.027C277.528 107.049 277.083 107.13 276.655 107.269C276.211 107.403 275.788 107.6 275.401 107.855C275.005 108.118 274.642 108.427 274.32 108.775C274.002 109.124 273.727 109.51 273.504 109.925C273.273 110.367 273.106 110.84 273.009 111.329C272.794 112.35 272.858 113.411 273.193 114.399C273.361 114.911 273.597 115.399 273.895 115.848C274.198 116.305 274.562 116.719 274.976 117.079C275.397 117.451 275.865 117.768 276.367 118.022C276.887 118.272 277.435 118.458 278 118.574C278.575 118.688 279.164 118.723 279.748 118.677C280.348 118.645 280.94 118.529 281.508 118.332C282.084 118.13 282.633 117.856 283.141 117.516C283.663 117.167 284.135 116.75 284.544 116.274C284.962 115.79 285.314 115.252 285.59 114.675C285.877 114.093 286.082 113.474 286.2 112.835C286.324 112.184 286.363 111.519 286.315 110.857C286.259 110.183 286.12 109.519 285.901 108.879C285.667 108.233 285.354 107.619 284.969 107.05C284.573 106.473 284.101 105.951 283.566 105.498C283.026 105.038 282.426 104.651 281.784 104.348C281.129 104.038 280.437 103.814 279.725 103.681C278.998 103.543 278.254 103.509 277.517 103.577C276.767 103.637 276.029 103.795 275.321 104.049C274.605 104.308 273.925 104.655 273.297 105.084C272.664 105.534 272.089 106.059 271.583 106.648C271.526 106.715 271.457 106.77 271.379 106.811C271.301 106.851 271.216 106.876 271.128 106.883C271.041 106.891 270.952 106.881 270.869 106.854C270.785 106.828 270.707 106.785 270.64 106.728C270.573 106.672 270.517 106.602 270.477 106.524C270.436 106.446 270.412 106.361 270.404 106.274C270.397 106.186 270.407 106.098 270.433 106.014C270.46 105.93 270.503 105.853 270.559 105.785C271.137 105.103 271.802 104.499 272.537 103.991C273.247 103.488 274.021 103.082 274.838 102.784C275.652 102.486 276.503 102.3 277.368 102.232C279.07 102.093 280.779 102.402 282.324 103.129C283.097 103.522 283.816 104.013 284.463 104.589C285.084 105.122 285.633 105.733 286.096 106.406C286.549 107.071 286.916 107.79 287.189 108.545C287.7 110.023 287.823 111.607 287.546 113.146C287.396 113.898 287.153 114.628 286.821 115.319C286.166 116.674 285.167 117.832 283.923 118.677C282.718 119.496 281.317 119.981 279.863 120.08L279.277 120.115Z" fill="#37474F"/>
<path d="M236.909 122.427H236.357C235.643 122.375 234.939 122.228 234.264 121.99C233.571 121.759 232.913 121.434 232.309 121.024C231.054 120.182 230.049 119.018 229.399 117.654C229.064 116.965 228.824 116.234 228.686 115.48C228.538 114.723 228.495 113.949 228.56 113.18C228.617 112.395 228.78 111.622 229.043 110.88C229.587 109.341 230.527 107.973 231.768 106.913C232.4 106.354 233.104 105.882 233.861 105.509C234.621 105.146 235.425 104.887 236.254 104.739C237.095 104.582 237.954 104.54 238.807 104.612C239.674 104.681 240.528 104.863 241.348 105.153C242.16 105.438 242.933 105.824 243.648 106.303C244.381 106.814 245.046 107.417 245.626 108.097C245.736 108.237 245.789 108.413 245.774 108.59C245.759 108.767 245.678 108.932 245.546 109.052C245.406 109.163 245.228 109.216 245.05 109.198C244.872 109.181 244.707 109.096 244.591 108.96C244.091 108.369 243.515 107.847 242.878 107.407C242.252 106.971 241.572 106.619 240.854 106.36C238.747 105.609 236.43 105.716 234.402 106.659C233.759 106.968 233.157 107.354 232.608 107.81C232.08 108.27 231.612 108.795 231.216 109.374C230.822 109.937 230.509 110.552 230.285 111.202C229.835 112.467 229.732 113.829 229.986 115.147C230.102 115.789 230.307 116.413 230.595 116.998C230.868 117.574 231.22 118.108 231.642 118.585C232.05 119.058 232.517 119.476 233.033 119.827C233.544 120.17 234.097 120.444 234.678 120.644C235.243 120.838 235.83 120.958 236.426 121.001C237.015 121.042 237.607 121.004 238.186 120.886C239.305 120.661 240.347 120.15 241.21 119.402C242.03 118.681 242.644 117.757 242.993 116.722C243.156 116.223 243.257 115.705 243.292 115.181C243.316 114.669 243.278 114.155 243.177 113.652C243.076 113.16 242.91 112.684 242.682 112.237C242.459 111.818 242.181 111.432 241.854 111.087C241.544 110.726 241.179 110.416 240.773 110.167C240.009 109.662 239.123 109.372 238.209 109.328C237.769 109.314 237.328 109.353 236.898 109.443C236.499 109.544 236.113 109.69 235.747 109.88C235.384 110.071 235.047 110.311 234.747 110.593C234.167 111.132 233.738 111.814 233.505 112.571C233.392 112.944 233.33 113.331 233.321 113.721C233.308 114.085 233.347 114.449 233.436 114.802C233.518 115.139 233.646 115.464 233.815 115.768C233.97 116.07 234.172 116.346 234.413 116.584C234.638 116.821 234.893 117.026 235.172 117.194C235.441 117.349 235.727 117.472 236.024 117.562C236.317 117.639 236.618 117.681 236.921 117.688C237.208 117.693 237.495 117.654 237.772 117.573C238.014 117.489 238.245 117.377 238.462 117.24C238.688 117.106 238.897 116.943 239.083 116.757C239.26 116.576 239.411 116.371 239.531 116.147C239.754 115.743 239.865 115.286 239.853 114.825C239.852 114.61 239.818 114.396 239.75 114.192C239.696 113.999 239.611 113.816 239.497 113.652C239.398 113.494 239.278 113.351 239.14 113.226C239.006 113.11 238.86 113.01 238.703 112.927C238.556 112.86 238.402 112.81 238.243 112.778C238.094 112.76 237.944 112.76 237.795 112.778C237.657 112.791 237.522 112.822 237.392 112.87C237.275 112.92 237.163 112.981 237.059 113.054C236.973 113.126 236.896 113.207 236.829 113.295C236.765 113.375 236.715 113.464 236.679 113.56C236.653 113.642 236.634 113.727 236.622 113.813C236.615 113.885 236.615 113.959 236.622 114.031C236.639 114.094 236.662 114.156 236.691 114.215L236.771 114.307C236.78 114.226 236.805 114.148 236.844 114.077C236.884 114.006 236.937 113.943 237.001 113.893C237.065 113.837 237.139 113.793 237.219 113.766C237.3 113.739 237.385 113.728 237.47 113.735C237.555 113.741 237.637 113.765 237.713 113.804C237.789 113.843 237.855 113.897 237.91 113.962C237.99 114.044 238.053 114.142 238.094 114.25C238.148 114.397 238.171 114.553 238.163 114.71C238.139 114.867 238.088 115.019 238.013 115.158C237.928 115.285 237.823 115.398 237.703 115.492C237.567 115.588 237.415 115.658 237.254 115.699C237.098 115.722 236.939 115.722 236.783 115.699C236.617 115.672 236.454 115.626 236.3 115.561C236.145 115.485 236.002 115.389 235.874 115.273C235.736 115.144 235.616 114.997 235.517 114.836C235.424 114.667 235.354 114.485 235.31 114.296C235.282 114.094 235.282 113.888 235.31 113.686C235.326 113.466 235.373 113.249 235.448 113.042C235.617 112.592 235.903 112.195 236.277 111.892C236.478 111.741 236.698 111.617 236.932 111.524C237.177 111.434 237.432 111.376 237.691 111.352C237.962 111.317 238.237 111.317 238.508 111.352C238.791 111.407 239.065 111.5 239.324 111.628C239.591 111.757 239.839 111.924 240.06 112.122C240.29 112.328 240.491 112.564 240.658 112.824C240.829 113.097 240.965 113.39 241.061 113.698C241.165 114.017 241.22 114.351 241.222 114.687C241.233 115.031 241.198 115.375 241.118 115.71C241.029 116.059 240.898 116.394 240.727 116.711C240.541 117.032 240.317 117.329 240.06 117.596C239.793 117.868 239.491 118.104 239.163 118.298C238.818 118.49 238.451 118.641 238.071 118.746C237.677 118.852 237.271 118.902 236.863 118.896C236.443 118.897 236.025 118.839 235.621 118.723C235.216 118.608 234.829 118.438 234.471 118.217C234.086 117.991 233.734 117.712 233.424 117.389C232.786 116.716 232.334 115.887 232.113 114.986C232.002 114.515 231.952 114.032 231.964 113.548C231.985 113.057 232.066 112.571 232.205 112.099C232.354 111.613 232.567 111.149 232.838 110.719C233.113 110.292 233.446 109.905 233.827 109.569C234.216 109.209 234.648 108.9 235.115 108.649C235.599 108.401 236.113 108.216 236.645 108.097C237.188 107.977 237.745 107.931 238.301 107.959C238.871 107.983 239.436 108.083 239.98 108.258C240.532 108.437 241.058 108.688 241.544 109.006C242.549 109.662 243.366 110.57 243.913 111.639C244.192 112.192 244.397 112.78 244.522 113.387C244.659 114.006 244.706 114.641 244.66 115.273C244.623 115.915 244.503 116.549 244.304 117.159C244.091 117.78 243.801 118.371 243.441 118.919C242.871 119.769 242.138 120.498 241.286 121.064C240.433 121.63 239.478 122.023 238.473 122.22C237.96 122.341 237.436 122.41 236.909 122.427Z" fill="#37474F"/>
<path d="M262.302 150.407C261.653 150.394 261.019 150.211 260.462 149.878C259.843 149.511 259.268 149.075 258.748 148.578L258.438 148.302C258.097 147.974 257.736 147.666 257.357 147.382C257.077 147.149 256.739 146.998 256.379 146.945C256.019 146.944 255.666 147.039 255.356 147.221C254.958 147.439 254.574 147.681 254.206 147.946L253.838 148.176C253.247 148.59 252.61 148.934 251.94 149.199C251.254 149.475 250.499 149.535 249.778 149.372C249.073 149.182 248.442 148.781 247.972 148.222C247.523 147.672 247.138 147.074 246.822 146.439L246.627 146.083C246.415 145.662 246.176 145.255 245.914 144.864C245.722 144.561 245.457 144.311 245.143 144.139C244.798 144.028 244.431 144.005 244.074 144.07C243.608 144.145 243.147 144.249 242.694 144.38L242.28 144.484C242.057 144.539 241.822 144.503 241.625 144.384C241.429 144.266 241.288 144.074 241.233 143.851C241.178 143.629 241.214 143.393 241.333 143.197C241.451 143.001 241.643 142.86 241.866 142.805L242.268 142.701C242.797 142.575 243.338 142.437 243.832 142.368C244.491 142.233 245.176 142.304 245.793 142.571C246.41 142.839 246.93 143.29 247.282 143.863C247.585 144.31 247.862 144.775 248.11 145.255L248.306 145.6C248.571 146.125 248.895 146.619 249.272 147.072C249.513 147.377 249.842 147.602 250.215 147.716C250.603 147.785 251.002 147.741 251.365 147.589C251.916 147.364 252.441 147.079 252.929 146.738L253.286 146.508C253.725 146.208 254.182 145.935 254.654 145.692C255.242 145.359 255.912 145.199 256.586 145.232C257.261 145.313 257.9 145.575 258.438 145.991C258.867 146.316 259.278 146.666 259.668 147.037L259.967 147.302C260.395 147.732 260.865 148.117 261.37 148.452C261.717 148.66 262.116 148.763 262.52 148.751C262.902 148.695 263.259 148.527 263.544 148.268C263.97 147.878 264.355 147.447 264.694 146.98L264.936 146.658C265.256 146.23 265.597 145.82 265.959 145.427C266.407 144.922 266.989 144.555 267.638 144.369C268.297 144.231 268.98 144.275 269.616 144.495C270.088 144.645 270.559 144.852 271.065 145.071L271.479 145.255C271.69 145.344 271.856 145.514 271.941 145.727C272.026 145.939 272.024 146.177 271.934 146.387C271.844 146.598 271.674 146.764 271.461 146.849C271.249 146.934 271.011 146.932 270.801 146.842L270.375 146.658C269.961 146.461 269.535 146.292 269.099 146.152C268.77 146.022 268.412 145.986 268.064 146.048C267.726 146.157 267.424 146.356 267.19 146.623C266.914 146.922 266.615 147.302 266.304 147.704L266.063 148.038C265.637 148.61 265.152 149.134 264.613 149.602C264.062 150.084 263.376 150.386 262.647 150.464L262.302 150.407Z" fill="#B16668"/>
<path d="M168.608 194.535C148.321 197.778 148.471 196.766 64.6327 261.686L41.6318 329.538C41.6318 329.538 51.5912 344.627 97.6619 322.638C113.578 315.048 167.538 280.362 167.538 280.362C194.242 243.25 175.451 198.56 168.608 194.535Z" fill="#455A64"/>
<path d="M132.232 154.72C132.232 154.72 133.842 153.961 134.371 150.614C134.9 147.268 134.624 144.864 135.142 141.184C135.659 137.504 137.442 131.225 140.892 130.615C144.342 130.006 146.056 137.929 146.067 144.335C146.079 150.741 146.067 154.525 150.323 161.804C154.578 169.084 156.015 178.376 151.404 186.427L132.232 154.72Z" fill="#F0997A"/>
<path d="M150.38 190.003C146.148 197.571 136.131 206.852 131.197 217.236C127.287 225.471 123.147 236.787 111.75 266.493C102.55 290.736 101.02 296.486 96.6039 305.514C92.1877 314.542 88.0706 319.119 80.4343 323.914C71.924 329.239 65.6562 331.792 56.0534 333.356C53.261 334.001 50.3585 334.001 47.5661 333.356C40.6658 331.321 37.5147 324.593 37.1352 317.049C36.4204 304.068 38.2246 291.071 42.4484 278.775C44.4725 272.887 46.301 269.736 56.0994 256.108C64.0577 245.021 71.6825 236.224 83.8154 220.813C97.1099 203.907 106.402 190.348 109.507 182.977C112.612 175.605 111.117 164.312 109.668 159.033C107.449 150.983 106.218 151.247 108.932 141.782C110.968 135.56 110.887 127.683 111.646 122.714C112.519 117.824 114.067 113.079 116.247 108.615C118.432 103.693 120.168 97.241 121.997 96.62C123.825 95.999 126.85 98.0346 126.597 101.968C126.597 101.968 129.024 99.1156 131.117 96.1485C133.21 93.1814 134.659 89.4553 137.534 88.8457C140.409 88.2362 141.686 92.7214 140.616 95.746C139.546 98.7706 138.718 100.599 138.718 100.599C138.718 100.599 141.49 101.899 138.914 107.499C137.829 109.732 136.461 111.816 134.843 113.698C133.808 117.976 133.589 120.081 131.393 123.566C130.082 127.602 129.323 131.018 127.379 134.307C128.322 137.274 130.668 140.828 130.519 145.934C130.369 151.04 129.507 152.225 135.372 158.469C139.328 162.678 146.125 167.532 149.805 173.293C153.485 179.055 154.612 182.448 150.38 190.003Z" fill="#FFBDA7"/>
<path d="M122.227 130.672C122.183 129.901 122.091 129.133 121.951 128.372C121.822 127.635 121.653 126.906 121.445 126.187C121.247 125.488 120.997 124.803 120.698 124.14L120.525 123.784L120.755 123.37C121.648 121.685 122.266 119.868 122.584 117.988C122.749 117.049 122.845 116.1 122.871 115.147C122.89 114.209 122.844 113.272 122.733 112.341V111.996L122.848 111.766C123.63 110.225 124.378 108.603 125.045 106.97C125.733 105.33 126.276 103.633 126.666 101.898C126.784 103.586 126.613 105.282 126.16 106.913C125.594 108.739 124.879 110.516 124.021 112.226C124.205 113.185 124.294 114.159 124.286 115.135C124.291 116.196 124.199 117.255 124.01 118.298C123.723 120.224 123.055 122.074 122.043 123.738C122.239 124.393 122.63 125.29 122.745 125.946C122.936 126.7 123.063 127.47 123.124 128.246C123.119 129.841 122.827 131.423 122.262 132.915C122.239 132.191 122.308 131.432 122.227 130.672Z" fill="#F0997A"/>
<path d="M126.39 127.314C126.685 126.127 126.919 124.925 127.091 123.714C127.246 122.524 127.327 121.326 127.333 120.126C127.344 118.969 127.24 117.813 127.022 116.676L126.907 116.09L127.425 115.687C129.085 114.424 130.497 112.864 131.588 111.087C132.707 109.295 133.581 107.361 134.187 105.337L134.268 105.049L134.429 104.934C135.245 104.368 136.014 103.737 136.729 103.048C137.472 102.352 138.143 101.581 138.73 100.748C138.415 101.648 137.957 102.491 137.373 103.244C136.638 104.081 135.83 104.85 134.958 105.544C134.81 106.632 134.568 107.706 134.233 108.752C133.878 109.746 133.432 110.705 132.899 111.616C132.323 112.635 131.637 113.588 130.852 114.457C130.133 115.26 129.331 115.984 128.46 116.619C128.669 117.903 128.754 119.205 128.713 120.506C128.689 121.805 128.543 123.099 128.276 124.37C128.037 125.507 127.682 126.617 127.218 127.682C126.677 128.835 126.038 129.939 125.309 130.983C125.688 129.695 126.114 128.522 126.39 127.314Z" fill="#F0997A"/>
<path d="M125.758 141.092C125.772 143.391 126.323 145.656 127.368 147.705C128.396 149.755 129.747 151.627 131.37 153.248C130.91 152.19 130.346 151.212 129.829 150.223C129.311 149.234 128.782 148.257 128.299 147.268C127.321 145.265 126.472 143.202 125.758 141.092Z" fill="#F0997A"/>
<path d="M145.021 167.117C146.281 170.982 146.674 175.078 146.171 179.112C145.892 181.096 145.338 183.031 144.526 184.862C143.652 186.746 142.657 188.57 141.548 190.325C143.312 189.046 144.812 187.437 145.964 185.587C147.702 182.787 148.539 179.522 148.362 176.231C148.185 172.941 147.003 169.783 144.975 167.186L145.021 167.117Z" fill="#F0997A"/>
<path d="M324.715 48.6862C320.54 38.8188 307.625 33.3906 288.419 33.3906H287.212C278.558 33.5633 269.938 34.5334 261.462 36.2887C228.008 43.005 190.677 60.6351 167.377 81.6004C165.675 83.13 164.042 84.671 162.501 86.2006C148.494 100.358 143.135 113.698 147.401 123.772C150.932 132.087 160.627 137.228 175.129 138.642C174.592 137.861 174.112 137.042 173.691 136.193C161.041 134.675 152.576 130.075 149.54 122.864C145.665 113.721 150.851 101.266 164.157 87.8106C164.882 87.0746 165.629 86.3501 166.388 85.614C189.619 63.4412 229.158 44.638 263.97 38.1173C271.616 36.6309 279.377 35.8113 287.166 35.6677C306.119 35.4722 318.643 40.3944 322.53 49.5487C326.417 58.7031 321.265 71.2385 307.924 84.6365C306.199 86.3846 304.371 88.1096 302.438 89.8117C302.728 90.549 303.086 91.2575 303.508 91.9278C305.636 90.0647 307.66 88.1671 309.557 86.2466C323.565 72.0896 328.924 58.7491 324.715 48.6862Z" fill="#BE185D"/>
<path d="M308.614 85.8438C307.119 84.4867 305.544 83.1527 303.911 81.8416C277.885 60.7729 235.886 44.4078 200.407 40.7966C195.731 40.2995 191.032 40.0461 186.33 40.0376C184.594 40.0376 182.88 40.0376 181.19 40.1526C161.305 41.0611 148.31 47.2254 144.618 57.5182C140.927 67.8111 147.033 80.8296 161.869 94.1816C163.076 95.3316 164.319 96.3437 165.618 97.4132C165.572 96.4088 165.572 95.3968 165.618 94.3771C164.871 93.7446 164.158 93.112 163.444 92.468C149.391 79.8176 143.514 67.6501 146.861 58.3003C150.208 48.9504 162.478 43.3497 181.362 42.4412C185.701 42.257 190.047 42.3069 194.381 42.5907C219.992 44.1777 249.928 53.0676 274.884 65.925C278.334 67.6846 281.6 69.5132 284.785 71.4107C291.08 75.1209 297.092 79.2916 302.772 83.8887C304.252 85.0924 305.678 86.3153 307.05 87.5573C321.092 100.208 326.98 112.375 323.622 121.725C320.678 129.925 310.903 135.261 295.826 137.044C295.768 137.837 295.699 138.608 295.63 139.344C311.903 137.504 322.507 131.627 325.784 122.484C329.488 112.214 323.369 99.1958 308.614 85.8438Z" fill="#BE185D"/>
<path d="M212.712 26.7659L206.663 25.5239L202.718 33.1601L201.741 24.5118L194.955 23.1203L200.66 20.5442L200.016 12.1719L205.156 18.4971L212.712 15.9555L208.365 22.0047L212.712 26.7659Z" fill="#BE185D"/>
<path d="M274.872 22.4993L277.827 19.7392L275.251 14.7366L280.231 17.4967L283.543 14.4146L282.761 18.4282L287.465 21.2573L282.14 21.6023L280.634 26.5935L279.058 21.9818L274.872 22.4993Z" fill="#BE185D"/>
<path d="M164.709 157.848L167.665 155.088L165.089 150.085L170.068 152.845L173.381 149.763L172.599 153.777L177.302 156.606L171.978 156.951L170.471 161.942L168.895 157.33L164.709 157.848Z" fill="#BE185D"/>
<path d="M300.886 159.378L304.715 155.801L301.38 149.326L307.832 152.903L312.122 148.901L311.11 154.099L317.193 157.768L310.305 158.216L308.349 164.679L306.314 158.711L300.886 159.378Z" fill="#BE185D"/>
<path d="M125.447 81.5886C125.062 81.5893 124.678 81.5624 124.297 81.5081C122.823 81.2984 121.428 80.7119 120.248 79.8052C119.067 78.8986 118.14 77.7026 117.558 76.3329C117.141 75.1775 117.053 73.9288 117.305 72.7266C117.557 71.5243 118.138 70.4157 118.984 69.5247C119.592 68.741 120.404 68.1398 121.331 67.7868C122.258 67.4338 123.264 67.3428 124.239 67.5236C125.303 67.6838 126.306 68.118 127.151 68.7834C127.996 69.4488 128.653 70.3225 129.058 71.3187C129.336 72.151 129.375 73.0444 129.172 73.8979C128.969 74.7515 128.531 75.5312 127.908 76.1489C127.541 76.6314 127.06 77.0146 126.508 77.2637C125.955 77.5127 125.35 77.6198 124.745 77.575C124.087 77.5204 123.45 77.3119 122.887 76.9663C122.324 76.6208 121.849 76.1478 121.502 75.5854C121.22 75.0258 121.107 74.3962 121.177 73.7735C121.246 73.1507 121.495 72.5616 121.893 72.0778C122.233 71.679 122.698 71.4081 123.213 71.3098C123.727 71.2116 124.26 71.2918 124.722 71.5372C125.067 71.6691 125.353 71.9205 125.528 72.2455C125.704 72.5706 125.756 72.9477 125.677 73.3083C125.651 73.576 125.532 73.8261 125.341 74.0152C125.15 74.2043 124.898 74.3204 124.63 74.3433C124.479 74.3407 124.335 74.2812 124.226 74.1767C124.118 74.0722 124.052 73.9304 124.044 73.7798C124.043 73.6428 124.09 73.5099 124.176 73.4031C124.262 73.2963 124.381 73.2223 124.515 73.1933C124.55 73.1005 124.55 72.9985 124.515 72.9058C124.501 72.836 124.469 72.771 124.423 72.7168C124.376 72.6625 124.317 72.6207 124.251 72.5953C124.007 72.455 123.724 72.4014 123.446 72.4431C123.168 72.4849 122.913 72.6196 122.721 72.8253C122.482 73.1307 122.331 73.4965 122.287 73.8821C122.242 74.2678 122.305 74.6582 122.468 75.0104C122.718 75.4068 123.056 75.7412 123.454 75.9883C123.853 76.2353 124.302 76.3885 124.768 76.4364C125.194 76.4628 125.619 76.3819 126.005 76.201C126.39 76.0202 126.725 75.7452 126.976 75.4014C127.468 74.9366 127.819 74.3431 127.99 73.6883C128.161 73.0336 128.145 72.344 127.942 71.6983C127.6 70.8992 127.058 70.2009 126.37 69.6695C125.682 69.1382 124.869 68.7915 124.009 68.6621C123.236 68.5134 122.437 68.5831 121.702 68.8635C120.967 69.1438 120.324 69.6237 119.846 70.2492C119.119 70.9793 118.616 71.902 118.396 72.9085C118.176 73.9151 118.248 74.9635 118.604 75.9304C119.119 77.1049 119.924 78.1288 120.944 78.9055C121.964 79.6822 123.166 80.1861 124.435 80.3696C125.559 80.5525 126.712 80.4204 127.765 79.988C128.819 79.5556 129.732 78.8398 130.403 77.92C131.608 76.5843 132.297 74.8635 132.347 73.0659C132.398 71.2682 131.807 69.5114 130.68 68.1101C128.678 65.327 124.619 63.1304 120.467 64.89C120.397 64.9229 120.321 64.9414 120.244 64.9443C120.166 64.9472 120.089 64.9344 120.017 64.9068C119.945 64.8792 119.879 64.8372 119.823 64.7835C119.767 64.7298 119.723 64.6653 119.693 64.5941C119.663 64.5228 119.647 64.4462 119.647 64.3688C119.647 64.2915 119.663 64.2149 119.694 64.1437C119.724 64.0726 119.768 64.0083 119.824 63.9547C119.88 63.9011 119.946 63.8594 120.019 63.832C124.745 61.8194 129.345 64.292 131.623 67.4431C132.893 69.053 133.557 71.0582 133.498 73.108C133.439 75.1578 132.661 77.1217 131.301 78.656C130.621 79.5673 129.738 80.3071 128.721 80.8163C127.705 81.3255 126.584 81.59 125.447 81.5886Z" fill="#BE185D"/>
<path d="M244.419 16.7952H244.292C242.247 16.8574 240.245 16.2013 238.634 14.9407C237.022 13.6801 235.903 11.8948 235.471 9.89494C235.085 8.61364 235.058 7.25092 235.393 5.95517C235.727 4.65941 236.411 3.48029 237.369 2.54618C238.419 1.49174 239.723 0.726031 241.156 0.323101C242.588 -0.0798296 244.1 -0.106353 245.546 0.24609C246.719 0.601074 247.771 1.27515 248.583 2.19307C249.395 3.11099 249.936 4.23661 250.146 5.44428C250.415 6.39769 250.415 7.4068 250.148 8.3605C249.88 9.3142 249.354 10.1755 248.628 10.8495C247.867 11.6108 246.92 12.1599 245.881 12.4424C244.842 12.7248 243.747 12.7307 242.705 12.4595C241.871 12.1849 241.131 11.6812 240.57 11.006C240.009 10.3309 239.649 9.51146 239.531 8.6414C239.361 8.05939 239.339 7.44408 239.468 6.85152C239.596 6.25895 239.871 5.70797 240.267 5.24877C240.705 4.75457 241.252 4.36937 241.865 4.1238C242.478 3.87823 243.14 3.77908 243.798 3.83422C244.414 3.94468 244.986 4.22997 245.444 4.65611C245.903 5.08225 246.23 5.63129 246.385 6.23781C246.494 6.74869 246.43 7.28113 246.203 7.75154C245.976 8.22195 245.599 8.60372 245.132 8.83691C244.817 9.02905 244.445 9.10546 244.08 9.05299C243.714 9.00052 243.379 8.82245 243.131 8.5494C242.935 8.36801 242.809 8.12428 242.773 7.85994C242.737 7.59559 242.795 7.32707 242.935 7.10034C243.022 6.99134 243.146 6.91758 243.283 6.89279C243.42 6.868 243.561 6.89386 243.681 6.96557C243.8 7.03727 243.89 7.14994 243.932 7.28261C243.975 7.41529 243.968 7.55895 243.913 7.68687C243.969 7.76854 244.044 7.83558 244.131 7.88237C244.193 7.91559 244.262 7.93298 244.333 7.93298C244.403 7.93298 244.472 7.91559 244.534 7.88237C244.793 7.77173 245.006 7.57545 245.138 7.32635C245.27 7.07724 245.313 6.79042 245.258 6.51382C245.157 6.14076 244.954 5.80329 244.671 5.53923C244.389 5.27517 244.039 5.09495 243.66 5.01876C243.189 4.98311 242.716 5.05578 242.277 5.2312C241.839 5.40663 241.446 5.68015 241.13 6.0308C240.856 6.35751 240.668 6.74756 240.584 7.1654C240.5 7.58323 240.521 8.01554 240.647 8.42289C240.747 9.0775 241.025 9.69194 241.451 10.199C241.877 10.7061 242.434 11.0863 243.062 11.298C243.908 11.5031 244.792 11.487 245.63 11.2514C246.468 11.0157 247.231 10.5684 247.846 9.95245C248.422 9.4155 248.835 8.72746 249.038 7.9669C249.242 7.20634 249.227 6.40393 248.996 5.65129C248.84 4.63572 248.398 3.68557 247.722 2.91176C247.045 2.13795 246.163 1.5724 245.178 1.28113C243.928 0.996706 242.627 1.03428 241.396 1.39032C240.165 1.74636 239.044 2.4092 238.14 3.3167C237.321 4.10973 236.738 5.1143 236.456 6.21876C236.173 7.32321 236.203 8.48428 236.541 9.57293C236.899 11.3352 237.872 12.9129 239.285 14.025C240.699 15.137 242.461 15.7112 244.258 15.6452C247.639 15.6452 251.871 13.7476 252.929 9.35442C252.965 9.20674 253.057 9.07911 253.186 8.99938C253.316 8.91966 253.471 8.89432 253.619 8.92891C253.693 8.94508 253.763 8.97597 253.825 9.01973C253.886 9.06349 253.939 9.11922 253.978 9.18362C254.018 9.24801 254.044 9.31974 254.056 9.39453C254.067 9.46932 254.063 9.54564 254.045 9.61893C252.906 14.5641 248.271 16.7952 244.419 16.7952Z" fill="#BE185D"/>
<path d="M347.716 75.6661C346.298 75.6571 344.905 75.3018 343.656 74.631C342.424 74.1125 341.359 73.2654 340.576 72.1824C339.793 71.0993 339.323 69.822 339.217 68.4898C339.07 67.0062 339.311 65.5098 339.915 64.1471C340.52 62.7844 341.468 61.602 342.667 60.7155C343.684 60.0447 344.866 59.6673 346.083 59.6247C347.3 59.5821 348.506 59.8759 349.567 60.474C350.471 60.8734 351.247 61.5139 351.811 62.3253C352.375 63.1368 352.705 64.0878 352.764 65.0742C352.863 66.1463 352.68 67.2255 352.234 68.2056C351.789 69.1856 351.095 70.0327 350.223 70.6634C349.479 71.1261 348.62 71.3713 347.744 71.3713C346.868 71.3713 346.01 71.1261 345.266 70.6634C344.712 70.4267 344.225 70.0557 343.849 69.5839C343.474 69.1121 343.222 68.5543 343.115 67.9608C343.011 67.3091 343.06 66.6418 343.26 66.0127C343.459 65.3835 343.804 64.81 344.266 64.3381C344.742 63.9282 345.327 63.6654 345.949 63.5817C346.572 63.498 347.206 63.597 347.773 63.8666C348.223 64.1198 348.579 64.5125 348.786 64.9855C348.994 65.4584 349.042 65.9861 348.923 66.4887C348.873 66.8523 348.697 67.1869 348.426 67.4346C348.155 67.6824 347.806 67.8278 347.44 67.8458C347.174 67.8841 346.902 67.828 346.673 67.6872C346.444 67.5465 346.272 67.3299 346.186 67.0752C346.164 67.0028 346.156 66.9264 346.165 66.851C346.173 66.7755 346.197 66.7026 346.234 66.6368C346.272 66.5709 346.323 66.5136 346.384 66.4683C346.445 66.4231 346.515 66.3909 346.589 66.3737C346.72 66.3363 346.861 66.3471 346.985 66.404C347.109 66.4609 347.209 66.5602 347.267 66.6842C347.359 66.7207 347.462 66.7207 347.555 66.6842C347.618 66.6521 347.672 66.6048 347.712 66.5466C347.752 66.4884 347.777 66.421 347.785 66.3507C347.864 66.0818 347.849 65.7938 347.742 65.5344C347.636 65.2751 347.444 65.06 347.198 64.9247C346.846 64.7641 346.456 64.7048 346.072 64.7535C345.688 64.8023 345.325 64.9571 345.025 65.2007C344.706 65.5439 344.472 65.9562 344.341 66.4052C344.209 66.8542 344.183 67.3276 344.266 67.7883C344.335 68.2081 344.511 68.6031 344.777 68.9354C345.042 69.2676 345.389 69.5261 345.784 69.6858C346.352 70.0549 347.013 70.256 347.69 70.2662C348.368 70.2764 349.034 70.0951 349.613 69.7433C350.308 69.2227 350.857 68.5329 351.209 67.7398C351.562 66.9466 351.705 66.0764 351.626 65.2122C351.589 64.4223 351.332 63.6584 350.882 63.0078C350.433 62.3571 349.81 61.8458 349.084 61.532C348.209 61.0132 347.205 60.7519 346.188 60.7784C345.17 60.8048 344.181 61.1179 343.334 61.6816C342.316 62.461 341.513 63.4862 341 64.661C340.487 65.8357 340.281 67.1216 340.401 68.3978C340.49 69.5338 340.891 70.6232 341.561 71.5448C342.231 72.4665 343.143 73.1845 344.197 73.619C345.781 74.4716 347.617 74.7328 349.377 74.3556C351.136 73.9784 352.704 72.9876 353.799 71.5604C356.03 68.9383 357.192 64.4762 354.489 60.865C354.398 60.743 354.359 60.5897 354.38 60.4387C354.402 60.2877 354.482 60.1515 354.604 60.06C354.727 59.9714 354.88 59.9339 355.03 59.9553C355.18 59.9768 355.316 60.0555 355.409 60.175C358.492 64.3036 357.192 69.3753 354.673 72.3079C353.831 73.3434 352.771 74.1809 351.568 74.7612C350.366 75.3416 349.051 75.6504 347.716 75.6661Z" fill="#BE185D"/>
</svg>
